<?xml version="1.0" encoding="utf-8"?>
<svg viewBox="0 0 500 500" style="shape-rendering: geometricprecision;" xmlns="http://www.w3.org/2000/svg">
  <g id="Layer_x0020_1" transform="matrix(1, 0, 0, 1, -4410.9287109375, -4134.99951171875)">
    <g id="_2744621482624">
      <path d="M 4852.84 4409.662 L 4665.82 4603.739 C 4661.812 4607.899 4655.298 4607.899 4651.29 4603.739 L 4464.269 4409.662 C 4436.523 4380.869 4422.682 4342.976 4422.682 4305.084 C 4422.682 4267.192 4436.523 4229.299 4464.269 4200.506 C 4492.015 4171.778 4528.531 4157.414 4565.045 4157.414 C 4598.427 4157.414 4631.873 4169.439 4658.555 4193.486 C 4685.236 4169.439 4718.62 4157.414 4752.066 4157.414 C 4788.58 4157.414 4825.095 4171.778 4852.84 4200.506 C 4880.586 4229.299 4894.428 4267.192 4894.428 4305.084 C 4894.428 4342.976 4880.586 4380.869 4852.84 4409.662 Z M 4658.555 4581.121 L 4611.487 4358.438 C 4635.225 4333.805 4596.648 4357.491 4596.648 4325.058 C 4596.648 4292.626 4661.246 4329.104 4637.508 4304.471 C 4613.833 4279.837 4698.02 4283.949 4666.767 4283.949 C 4635.512 4283.949 4640.752 4192.307 4665.82 4215.586 C 4805.155 4344.98 4636.567 4260.792 4632.559 4256.633 C 4608.85 4232.031 4710.065 4304.501 4678.812 4304.501 C 4647.559 4304.501 4713.954 4313.892 4690.216 4338.526 C 4666.542 4363.159 4678.815 4352.843 4678.815 4385.275 C 4678.815 4417.708 4653.763 4356.615 4677.499 4381.248 L 4658.555 4581.121 Z" clip-rule="evenodd" style="fill: rgb(231, 231, 231);"/>
    </g>
  </g>
</svg>