<?xml version="1.0" encoding="utf-8"?>
<svg viewBox="0 0 500 500" style="shape-rendering: geometricprecision;" xmlns="http://www.w3.org/2000/svg">
  <g id="Layer_x0020_1" transform="matrix(1, 0, 0, 1, -4407.6875, -4133.228515625)">
    <g id="_2744621482624">
      <path d="M 4852.84 4409.662 L 4665.82 4603.739 C 4661.812 4607.899 4655.298 4607.899 4651.29 4603.739 L 4464.269 4409.662 C 4436.523 4380.869 4422.682 4342.976 4422.682 4305.084 C 4422.682 4267.192 4436.523 4229.299 4464.269 4200.506 C 4492.015 4171.778 4528.531 4157.414 4565.045 4157.414 C 4598.427 4157.414 4631.873 4169.439 4658.555 4193.486 C 4685.236 4169.439 4718.62 4157.414 4752.066 4157.414 C 4788.58 4157.414 4825.095 4171.778 4852.84 4200.506 C 4880.586 4229.299 4894.428 4267.192 4894.428 4305.084 C 4894.428 4342.976 4880.586 4380.869 4852.84 4409.662 Z M 4658.555 4581.121 L 4838.31 4394.583 C 4862.048 4369.95 4873.885 4337.517 4873.885 4305.084 C 4873.885 4272.652 4862.048 4240.219 4838.31 4215.586 C 4814.635 4190.952 4783.319 4178.667 4752.066 4178.667 C 4720.811 4178.667 4689.558 4190.952 4665.82 4215.586 C 4661.812 4219.745 4655.298 4219.745 4651.29 4215.586 C 4627.614 4190.952 4596.298 4178.667 4565.045 4178.667 C 4533.792 4178.667 4502.537 4190.952 4478.799 4215.586 C 4455.125 4240.219 4443.225 4272.652 4443.225 4305.084 C 4443.225 4337.517 4455.063 4369.95 4478.799 4394.583 L 4658.555 4581.121 Z" fill="#011627" clip-rule="evenodd" style=""/>
    </g>
  </g>
</svg>