<?xml version="1.0" encoding="utf-8"?>
<svg viewBox="228 224.887 28.365 28.456" style="shape-rendering: geometricprecision;" xmlns="http://www.w3.org/2000/svg">
  <g id="Layer_x0020_1" transform="matrix(0.08993001282215118, 0, 0, 0.09735199809074402, -177.14927673339844, -185.58914184570312)" style="">
    <g id="_2744621482624" style="shape-rendering: geometricprecision;">
      <g id="g-1" transform="matrix(1, 0, 0, 1, 541.326355, -1595.275269)">
        <g id="_2744577866736">
          <path class="fil1" d="M 4144.332 5890.415 C 4131.189 5877.762 4113.979 5871.435 4096.724 5871.435 C 4079.514 5871.435 4062.258 5877.762 4049.117 5890.415 C 4035.974 5903.068 4029.402 5919.68 4029.402 5936.25 C 4029.402 5952.863 4035.974 5969.432 4049.117 5982.085 C 4062.258 5994.782 4079.514 6001.108 4096.724 6001.108 C 4113.979 6001.108 4131.189 5994.782 4144.332 5982.085 C 4157.518 5969.432 4164.09 5952.863 4164.09 5936.25 C 4164.09 5919.68 4157.518 5903.068 4144.332 5890.415 Z M 4068.919 5980.966 C 4068.025 5980.277 4067.489 5979.201 4067.489 5978.039 C 4067.489 5975.931 4069.232 5974.252 4071.423 5974.252 C 4072.853 5974.252 4073.478 5974.683 4074.015 5975.156 C 4074.908 5975.845 4075.446 5976.92 4075.446 5978.082 C 4075.446 5980.191 4073.702 5981.87 4071.511 5981.87 C 4070.081 5981.87 4069.455 5981.439 4068.919 5980.966 Z M 4063.957 5967.797 C 4065.521 5969.26 4065.477 5971.67 4063.957 5973.133 C 4062.437 5974.639 4059.933 5974.596 4058.414 5973.133 C 4047.819 5962.934 4042.544 5949.592 4042.544 5936.25 C 4042.544 5922.908 4047.819 5909.567 4058.414 5899.367 C 4059.933 5897.903 4062.437 5897.86 4063.957 5899.367 C 4065.477 5900.83 4065.521 5903.24 4063.957 5904.703 C 4054.972 5913.397 4050.457 5924.845 4050.457 5936.25 C 4050.457 5947.655 4054.972 5959.103 4063.957 5967.797 Z M 4196.096 6044.447 L 4209.105 6031.922 L 4172.315 5996.503 L 4159.307 6009.027 L 4196.096 6044.447 Z M 4217.465 6034.591 L 4198.869 6052.495 C 4197.348 6053.958 4194.845 6053.958 4193.281 6052.495 L 4150.948 6011.738 C 4149.428 6010.232 4149.428 6007.822 4150.948 6006.358 L 4157.475 6000.075 L 4147.058 5990.09 C 4132.798 6002.485 4114.739 6008.682 4096.724 6008.682 C 4077.502 6008.682 4058.235 6001.624 4043.528 5987.465 C 4028.866 5973.348 4021.49 5954.799 4021.49 5936.25 C 4021.49 5917.744 4028.866 5899.195 4043.528 5885.035 C 4058.235 5870.919 4077.502 5863.818 4096.724 5863.818 C 4115.989 5863.818 4135.257 5870.919 4149.919 5885.035 C 4164.626 5899.195 4171.958 5917.744 4171.958 5936.25 C 4171.958 5953.594 4165.52 5970.982 4152.646 5984.71 L 4163.017 5994.738 L 4169.543 5988.454 C 4171.108 5986.948 4173.566 5986.948 4175.131 5988.454 L 4217.465 6029.211 C 4219.028 6030.717 4219.028 6033.085 4217.465 6034.591 Z" style="fill: rgb(1, 22, 39); fill-rule: nonzero;"/>
        </g>
      </g>
    </g>
  </g>
</svg>